<?xml version="1.0" encoding="UTF-8" standalone="no"?>
<!-- Created with Inkscape (http://www.inkscape.org/) -->

<svg
   width="210mm"
   height="297mm"
   viewBox="0 0 210 297"
   version="1.1"
   id="svg1"
   inkscape:version="1.3.2 (091e20e, 2023-11-25)"
   sodipodi:docname="ChessPiece_Assets.svg"
   xmlns:inkscape="http://www.inkscape.org/namespaces/inkscape"
   xmlns:sodipodi="http://sodipodi.sourceforge.net/DTD/sodipodi-0.dtd"
   xmlns="http://www.w3.org/2000/svg"
   xmlns:svg="http://www.w3.org/2000/svg">
  <sodipodi:namedview
     id="namedview1"
     pagecolor="#ffffff"
     bordercolor="#000000"
     borderopacity="0.25"
     inkscape:showpageshadow="2"
     inkscape:pageopacity="0.0"
     inkscape:pagecheckerboard="0"
     inkscape:deskcolor="#d1d1d1"
     inkscape:document-units="mm"
     inkscape:zoom="0.50000001"
     inkscape:cx="321.99999"
     inkscape:cy="-20.999999"
     inkscape:window-width="2560"
     inkscape:window-height="1302"
     inkscape:window-x="0"
     inkscape:window-y="25"
     inkscape:window-maximized="0"
     inkscape:current-layer="layer1" />
  <defs
     id="defs1" />
  <g
     inkscape:label="Layer 1"
     inkscape:groupmode="layer"
     id="layer1">
    <rect
       style="fill:#787777;fill-opacity:0.02;stroke:none;stroke-width:0.062594;stroke-dasharray:none"
       id="rect20"
       width="26.458334"
       height="26.458334"
       x="73.255981"
       y="68.678513"
       ry="0"
       inkscape:export-filename="Pawn_BLACK.png"
       inkscape:export-xdpi="96"
       inkscape:export-ydpi="96" />
    <path
       id="path37"
       style="fill:#ffffff;stroke-width:0.0450505"
       d="m 86.488299,74.501395 c -1.37646,-1.5e-5 -2.50583,1.128915 -2.50592,2.505485 a 0.62584018,0.62584018 0 0 0 0,0.0031 c 2.3e-4,0.07516 0.005,0.144823 0.009,0.208529 0.005,0.05527 0.011,0.101299 0.0163,0.136839 0.003,0.0169 0.005,0.03351 0.006,0.04978 0.0874,0.545771 0.36368,1.018519 0.74307,1.386715 -0.32392,0.281049 -0.55888,0.497094 -0.89839,0.756695 -0.51814,0.396252 -0.63306,0.990072 -0.64672,1.406066 -0.0141,0.415994 0.0738,0.753189 0.0738,0.753189 a 0.62584018,0.62584018 0 0 0 0.60714,0.472937 l 0.55037,-4.38e-4 c -0.0257,0.134802 -0.0263,0.235521 -0.10081,0.423665 -0.25994,0.656854 -0.89313,1.633963 -2.47999,2.743041 a 0.62584018,0.62584018 0 0 0 -0.19577,0.223059 c 0,0 -1.00275,1.70401 -0.36999,3.344455 a 0.62584018,0.62584018 0 0 0 0.5838,0.400369 h 9.21025 a 0.62584018,0.62584018 0 0 0 0.5838,-0.400369 c 0.6327,-1.640335 -0.3691,-3.344455 -0.3691,-3.344455 a 0.62584018,0.62584018 0 0 0 -0.19622,-0.223059 c -1.58686,-1.109078 -2.22006,-2.086187 -2.47998,-2.743041 -0.0746,-0.188144 -0.075,-0.288863 -0.10083,-0.423665 l 0.55037,4.38e-4 a 0.62584018,0.62584018 0 0 0 0.60757,-0.473375 c 0,0 0.0872,-0.337226 0.0736,-0.753188 -0.0141,-0.415949 -0.12917,-1.009424 -0.64717,-1.405629 -0.33954,-0.259648 -0.57458,-0.475646 -0.89835,-0.756695 0.37989,-0.36868 0.65689,-0.84226 0.74394,-1.388907 a 0.62584018,0.62584018 0 0 0 0,-9.06e-4 c 8.2e-4,-0.01252 0.005,-0.02583 0.006,-0.04087 a 0.62584018,0.62584018 0 0 0 8.3e-4,-0.0047 c 0.006,-0.0404 0.0109,-0.08658 0.016,-0.138091 0.006,-0.06435 0.009,-0.133863 0.009,-0.208092 a 0.62584018,0.62584018 0 0 0 0,-0.0047 c -7e-5,-1.376398 -1.12902,-2.505484 -2.50549,-2.505484 z" />
    <path
       id="path12"
       style="fill:#000000;fill-opacity:1;stroke:none;stroke-width:0.0450505;stroke-opacity:0.945513"
       d="m 86.484359,75.12689 c -1.03831,-1.7e-5 -1.88007,0.841694 -1.88012,1.880005 2.1e-4,0.0526 0.003,0.104585 0.008,0.156409 0.003,0.03601 0.008,0.07124 0.0125,0.106464 8.3e-4,0.01096 0.003,0.02301 0.006,0.03429 0.10459,0.657324 0.54826,1.200918 1.1476,1.44444 l -2.2e-4,4.39e-4 c 0,0 -0.93132,0.83083 -1.54013,1.296376 -0.60878,0.465548 -0.34627,1.509149 -0.34627,1.509149 l 1.23712,-6.73e-4 c 0,0 0.42194,1.978077 -2.90855,4.305829 0,0 -0.82371,1.575751 -0.34024,2.829151 h 9.2102 c 0.48344,-1.2534 -0.34025,-2.829168 -0.34025,-2.829168 -3.33049,-2.32775 -2.90855,-4.305812 -2.90855,-4.305812 l 1.23713,6.73e-4 c 0,0 0.2625,-1.043601 -0.3463,-1.509149 -0.6088,-0.465563 -1.54012,-1.296376 -1.54012,-1.296376 l -2.2e-4,-4.54e-4 c 0.59935,-0.243522 1.04295,-0.787117 1.14761,-1.444425 8.3e-4,-0.01096 0.005,-0.02286 0.006,-0.03445 0.006,-0.03523 0.009,-0.07061 0.0125,-0.106465 0.005,-0.05166 0.006,-0.103802 0.008,-0.156252 -6e-5,-1.03831 -0.84182,-1.880021 -1.88013,-1.880021 z"
       sodipodi:nodetypes="cccccccsccccccccscccccccc" />
    <rect
       style="fill:#787777;fill-opacity:0.02;stroke:none;stroke-width:0.062594;stroke-dasharray:none"
       id="rect42"
       width="26.458334"
       height="26.458334"
       x="73.255981"
       y="98.429817"
       ry="0"
       inkscape:export-filename="Knight_BLACK.png"
       inkscape:export-xdpi="96"
       inkscape:export-ydpi="96" />
    <path
       id="path40"
       style="fill:#ffffff;stroke-width:0;stroke-opacity:0.673077"
       d="m 86.027489,101.04476 c -0.61634,-0.007 -1.19367,0.0441 -1.69703,0.18823 -1.21735,0.3487 -1.98138,0.81723 -2.43824,1.25665 -0.22845,0.21971 -0.38195,0.41283 -0.48087,0.67377 -0.0495,0.13048 -0.1336,0.27906 -0.0212,0.5993 0.0562,0.16013 0.2206,0.36468 0.42573,0.44801 0.20514,0.0833 0.38516,0.0583 0.50256,0.0246 -0.16732,0.048 -0.19538,0.006 -0.16716,0.0164 0.0282,0.0103 0.10446,0.0472 0.18941,0.10612 0.081,0.0563 0.15521,0.16169 0.24043,0.24688 -0.29343,0.57745 -0.5864,1.14699 -0.5864,1.14699 -0.0617,0.10489 -0.0952,0.22379 -0.0979,0.34539 -10e-4,0.0471 -0.006,0.35791 -0.003,0.65384 l -0.68961,1.57037 c -0.0197,0.0293 -0.14675,0.22145 -0.32663,0.41928 -0.12483,0.13731 -0.36774,0.3863 -0.46734,0.79633 -0.0996,0.41003 0.006,0.89906 0.28792,1.34813 0.45115,0.72075 1.21775,1.0221 1.83074,0.97635 0.61298,-0.0458 1.08177,-0.24905 1.40853,-0.74297 l -0.18297,0.18941 c 0.0944,-0.0666 0.1253,-0.0627 0.20466,-0.11317 -0.10948,0.11557 -0.19302,0.23886 -0.30668,0.3536 -0.39423,0.3979 -0.79467,0.77862 -1.09892,1.24375 -0.30427,0.46512 -0.49998,1.1224 -0.2674,1.74746 0.13344,0.35845 0.31196,0.54033 0.40344,0.6169 -0.008,0.0415 -0.008,0.0755 -0.0656,0.22634 0.0664,-0.17576 -0.21933,0.12729 -0.25392,0.6597 -0.0244,0.37797 0.18563,0.71999 0.48438,1.05376 -0.16564,0.1686 -0.28793,0.32776 -0.3331,0.39347 -0.075,0.10915 -0.0446,0.12372 -0.4128,0.2674 -0.0991,0.0388 -0.18824,0.0993 -0.2609,0.17709 0,0 -0.27139,0.28208 -0.4691,0.70016 -0.19774,0.41809 -0.35512,1.12871 0.0692,1.74278 0.13329,0.19251 0.35233,0.30737 0.5864,0.30727 h 9.04402 c 0.23407,1e-4 0.45326,-0.11475 0.5864,-0.30727 0.42431,-0.61407 0.26693,-1.32469 0.0692,-1.74278 -0.19771,-0.41808 -0.4691,-0.70016 -0.4691,-0.70016 -0.0727,-0.0778 -0.16192,-0.13829 -0.26096,-0.17709 -0.36829,-0.1437 -0.33783,-0.15825 -0.41282,-0.2674 -0.049,-0.0713 -0.19191,-0.25151 -0.38409,-0.4351 0.001,-0.001 0.002,-0.001 0.002,-0.002 0.28358,-0.38375 0.4862,-1.06386 0.23571,-1.78031 -0.0332,-0.0951 -0.0332,-0.11796 -0.0457,-0.17357 0.0258,-0.0169 0.0258,-0.0171 0.0564,-0.0369 0.21316,-0.14533 0.33113,-0.39451 0.30844,-0.65149 0.51942,0.001 0.86548,-0.53609 0.64973,-1.00861 -0.22851,-0.4357 -0.23872,-0.67712 -0.22753,-0.99101 0.005,-0.16395 0.028,-0.3615 0.0318,-0.5864 0.0578,-0.01 0.11417,-0.0272 0.16766,-0.051 0.44359,-0.48123 0.75342,-1.11727 0.87607,-1.78734 0.0365,-0.19937 0.0451,-0.4058 0.031,-0.61514 0.1076,-0.0689 0.19471,-0.16554 0.25214,-0.27971 0.0937,-0.93662 0.0669,-1.60043 -0.12545,-2.11162 0.11292,-0.18166 0.13845,-0.40448 0.0692,-0.60692 -0.15364,-0.4396 -0.42868,-1.05578 -0.86552,-1.59031 -0.0534,-0.0652 -0.14488,-0.10519 -0.20406,-0.16771 0.0277,-0.1195 0.024,-0.24413 -0.009,-0.36181 -0.3926,-0.75615 -0.69112,-1.18937 -1.16459,-1.41322 -0.039,-0.0184 -0.0611,-0.0139 -0.0973,-0.0287 0.0937,-0.28384 2.2e-4,-0.59596 -0.23398,-0.78167 -1.0226,-0.71014 -2.52906,-0.96864 -3.88489,-0.98398 z"
       sodipodi:nodetypes="sssssscsscccccsssscccsssccscsccsccccsccsccsccccsccsccccsccsccss" />
    <path
       id="rect34"
       style="fill:#000000;fill-opacity:1;stroke:none;stroke-width:0;stroke-opacity:0.673077"
       d="m 86.023039,101.75745 c -0.5675,-0.006 -1.09249,0.0459 -1.49265,0.16048 -2.25828,0.64687 -2.64811,1.70257 -2.40461,1.63267 0.28114,-0.0807 0.94651,0.36155 1.32021,0.93617 -0.64706,1.30813 -0.83278,1.62519 -0.83278,1.62519 -0.003,0.14878 -0.0356,0.40742 -0.006,0.79527 l -0.77882,1.77342 c 0,0 -0.1798,0.27568 -0.41944,0.53929 -0.23966,0.26363 -0.53213,0.60157 -0.10306,1.28718 0.65721,1.04992 1.79322,0.59379 2.04151,0.21846 1.77285,-1.25106 1.97716,-0.0642 2.62217,-1.7525 -0.22787,2.66008 -3.58657,3.77195 -3.01143,5.31766 0.21306,0.57262 0.71346,0.34713 0.33666,1.34396 -0.0965,0.25528 -0.59383,0.5164 0.39434,1.31603 l 5.5477,0.036 c 0,0 0.89538,-0.46123 0.53929,-1.4798 -0.25761,-0.73691 -0.20865,-0.71516 0.29363,-1.04256 -0.70007,-0.8063 -0.58112,-0.72485 -0.31753,-1.82722 0.40742,0.4793 0.50391,0.99322 1.03438,1.09512 -0.575,-1.09639 -0.13876,-1.6895 -0.33007,-2.41879 l -0.27544,-1.31144 c 0.3233,0.62083 0.33811,0.0234 0.68468,1.28763 0.64797,-0.70295 1.12214,-2.26533 0.27885,-2.55404 -0.38251,-0.13097 -0.61193,-0.3213 -0.38912,-0.53212 0.44074,0.46249 0.49357,-0.25192 1.08426,0.81618 0.24588,-2.45573 -0.60228,-2.46197 -1.078,-2.27028 -0.19963,0.0805 -1.19062,-0.73952 -0.71141,-0.64403 1.07748,0.60089 0.95085,-0.22253 1.76924,0.50193 -0.25969,-0.74285 -1.05596,-2.29584 -2.00953,-1.88072 -0.34779,0.15142 -0.81238,-0.35352 -0.43394,-0.25492 0.24016,0.22891 0.62729,-0.47699 1.40373,0.10878 -0.74634,-1.43752 -0.86791,-1.04731 -1.85262,-1.32244 -1.00309,-0.17054 0.58233,-0.64405 0.58233,-0.64405 -0.78349,-0.54408 -2.2378,-0.84239 -3.48634,-0.85652 z m -1.98625,4.02024 c 0.0193,-2.4e-4 0.67045,-0.38166 0.676,0.0755 0.15685,0.0355 -0.54609,0.91014 -1.23634,0.96337 0.24349,-0.50257 0.42528,-1.03657 0.56034,-1.03891 z m -0.4454,11.62581 c -0.57683,0.31026 -0.29377,0.65607 -1.21964,1.01731 0,0 -0.8089,0.86384 -0.33413,1.55093 h 9.0445 c 0.47476,-0.6871 -0.33396,-1.55093 -0.33396,-1.55093 -0.92589,-0.36124 -0.64282,-0.70705 -1.21966,-1.01731 z"
       sodipodi:nodetypes="sscccccccccssccsccccccscccccsccccssccccccccccc" />
    <g
       id="g4"
       transform="matrix(1.5661965,0,0,1.5661965,-270.86126,96.328101)"
       inkscape:export-filename="Bishop_BLACK.png"
       inkscape:export-xdpi="96"
       inkscape:export-ydpi="96">
      <rect
         style="fill:#787777;fill-opacity:0.02;stroke:none;stroke-width:0.0399656;stroke-dasharray:none"
         id="rect43"
         width="16.893368"
         height="16.893368"
         x="219.71524"
         y="21.819817"
         ry="0"
         inkscape:export-filename="Bishop_BLACK.png"
         inkscape:export-xdpi="96"
         inkscape:export-ydpi="96" />
      <path
         id="path39"
         style="fill:#ffffff;stroke-width:0.0276116"
         d="m 228.16201,24.505564 c -0.74351,5.4e-5 -1.35722,0.61363 -1.3572,1.3572 a 0.50850044,0.50850044 0 0 0 0,6.69e-4 c 3.5e-4,0.208812 0.0564,0.408149 0.14648,0.591856 -0.5894,0.670027 -1.10588,1.649811 -1.48267,2.653679 -0.22118,0.589326 -0.38561,1.173365 -0.45305,1.698501 -0.0675,0.525139 -0.0869,1.017313 0.24787,1.432934 0.20164,0.250264 0.44971,0.470322 0.7113,0.674264 -0.28554,0.222391 -0.65779,0.466532 -1.26079,0.741323 a 0.50850044,0.50850044 0 0 0 -0.18582,0.144793 c 0,0 -0.19985,0.245475 -0.3413,0.594526 -0.14144,0.349052 -0.25342,0.883126 0.042,1.382557 a 0.50850044,0.50850044 0 0 0 0.43772,0.249553 h 6.99084 a 0.50850044,0.50850044 0 0 0 0.43773,-0.249553 c 0.29545,-0.499432 0.18347,-1.033505 0.0421,-1.382557 -0.14143,-0.349051 -0.34131,-0.594526 -0.34131,-0.594526 a 0.50850044,0.50850044 0 0 0 -0.18582,-0.144793 c -0.603,-0.274792 -0.97524,-0.518932 -1.26077,-0.741323 0.26159,-0.203941 0.50965,-0.423995 0.71129,-0.674264 0.29818,-0.370096 0.30643,-0.805034 0.26657,-1.262116 -0.04,-0.457079 -0.16234,-0.961941 -0.3353,-1.482978 -0.34593,-1.042071 -0.88842,-2.136251 -1.47798,-2.88822 a 0.50850044,0.50850044 0 0 0 -0.18482,-0.09241 c 0.11202,-0.200176 0.1899,-0.417199 0.19015,-0.651241 a 0.50850044,0.50850044 0 0 0 0,-6.69e-4 c 4e-5,-0.743558 -0.61363,-1.357224 -1.3572,-1.3572 z" />
      <path
         id="path13"
         style="fill:#000000;fill-opacity:1;stroke:none;stroke-width:0.0276116"
         d="m 228.16191,25.014156 c -0.46871,3.3e-5 -0.84867,0.380021 -0.84865,0.84874 3.5e-4,0.242306 0.10414,0.472943 0.28529,0.633798 -1.16282,1.030849 -2.60087,4.603292 -1.93916,5.424608 0.28354,0.351942 0.70444,0.687255 1.13067,0.95202 -0.30249,0.353269 -0.85451,0.784688 -1.86537,1.245348 0,0 -0.62515,0.779875 -0.25819,1.400178 h 6.99083 c 0.36695,-0.620308 -0.25821,-1.400178 -0.25821,-1.400178 -1.01086,-0.460662 -1.56288,-0.892079 -1.86537,-1.245348 0.42627,-0.264772 0.84712,-0.600059 1.13069,-0.95202 0.58928,-0.731437 -0.48671,-3.643499 -1.5506,-5.000459 -0.95189,1.115186 -1.24836,3.702649 -1.24836,3.702649 l -0.51325,-0.277341 c 0.0276,-1.09204 0.57337,-3.025083 1.32801,-3.80535 l 0.0452,-0.04411 c 0.18122,-0.160854 0.28502,-0.391491 0.28528,-0.633797 2e-5,-0.468752 -0.37998,-0.848756 -0.84873,-0.84874 z"
         sodipodi:nodetypes="cccsccccccsccccccc" />
    </g>
    <rect
       style="fill:#787777;fill-opacity:0.02;stroke:none;stroke-width:0.062594;stroke-dasharray:none"
       id="rect44"
       width="26.458334"
       height="26.458334"
       x="73.255981"
       y="159.53197"
       ry="0"
       inkscape:export-filename="Rook_BLACK.png"
       inkscape:export-xdpi="96"
       inkscape:export-ydpi="96" />
    <path
       id="path38"
       style="fill:#ffffff;stroke-width:0.0444931"
       d="m 81.223319,163.73574 c -0.44772,1.9e-4 -0.81066,0.3631 -0.81085,0.81086 v 1.88486 c -0.001,0.001 -0.002,0.003 -0.003,0.003 v 2.53019 c -9e-5,0.23354 0.10039,0.45579 0.27592,0.60989 l 2.42391,2.12533 -1.1515,5.66554 c -0.32538,0.22582 -0.56029,0.58728 -0.78218,0.96837 -0.10963,0.1595 -0.10775,0.21303 -0.62325,0.41415 -0.11292,0.0442 -0.21415,0.11308 -0.29681,0.20155 0,0 -0.35094,0.3658 -0.60584,0.90439 -0.25488,0.53858 -0.45161,1.42809 0.0807,2.19853 0.15161,0.21906 0.40103,0.34976 0.66741,0.34967 h 12.17462 c 0.26641,9e-5 0.51584,-0.13062 0.66739,-0.34967 0.53237,-0.77044 0.33564,-1.65995 0.0807,-2.19853 -0.2549,-0.53859 -0.60582,-0.90439 -0.60582,-0.90439 -0.0825,-0.0885 -0.18408,-0.15737 -0.29683,-0.20155 -0.51551,-0.20113 -0.5141,-0.25457 -0.62384,-0.41415 -0.0789,-0.1148 -0.28735,-0.37639 -0.57619,-0.62848 l -1.29995,-6.0031 2.42681,-2.12766 c 0.17545,-0.15411 0.276,-0.37635 0.27587,-0.60989 v -2.53019 c -8.6e-4,-7.7e-4 -10e-4,-0.002 -0.002,-0.003 v -1.83259 c -2e-4,-0.44775 -0.36312,-0.81068 -0.81086,-0.81087 h -2.2479 c -0.43827,0.006 -0.79195,0.3604 -0.79867,0.79867 v -0.0388 c -1.9e-4,-0.44775 -0.36312,-0.81068 -0.81088,-0.81087 h -3.0175 c -0.30083,0.0702 -0.5357,0.30502 -0.60583,0.60584 -0.0697,-0.30234 -0.30584,-0.53843 -0.60816,-0.60816 z"
       sodipodi:nodetypes="cccccccccccsccccsccsccccccccccsccccc" />
    <path
       id="path22"
       style="fill:#000000;fill-opacity:1;stroke:none;stroke-width:0.0444931"
       d="m 81.223089,164.54657 v 1.88846 h -0.003 v 2.53025 l 2.78552,2.44235 -1.50227,6.72719 h -0.0141 c -0.77646,0.41762 -0.39534,0.88305 -1.64166,1.36931 0,0 -1.0889,1.16276 -0.44983,2.08764 h 12.17482 c 0.63905,-0.92488 -0.44983,-2.08764 -0.44983,-2.08764 -1.24633,-0.48626 -0.86518,-0.95169 -1.64164,-1.36931 v 0 l -1.45674,-6.72719 2.78536,-2.44235 v -2.53025 h -0.002 v -1.83513 h -2.24776 v 1.80993 l -1.60984,-0.018 v -1.84268 h -3.01764 v 1.84313 l -1.21365,0.0141 v -1.85971 z"
       sodipodi:nodetypes="ccccccccccccccccccccccccccc" />
    <rect
       style="fill:#787777;fill-opacity:0.02;stroke:none;stroke-width:0.062594;stroke-dasharray:none"
       id="rect45"
       width="26.458334"
       height="26.458334"
       x="73.255981"
       y="188.56931"
       ry="0"
       inkscape:export-filename="Queen_BLACK.png"
       inkscape:export-xdpi="96"
       inkscape:export-ydpi="96" />
    <path
       id="path41"
       style="fill:#ffffff;stroke-width:0.0408439"
       d="m 82.736919,193.04625 c -0.94309,3e-5 -1.8013,0.85824 -1.80133,1.80133 a 0.69975005,0.69975005 0 0 0 0,0.002 c 0.002,0.62326 0.37095,1.21452 0.89969,1.5373 l 0.18012,2.34024 -0.64947,-0.68894 c 0.0525,-0.16943 0.0871,-0.34525 0.0879,-0.52264 a 0.69975005,0.69975005 0 0 0 0,-5e-4 0.69975005,0.69975005 0 0 0 0,-0.002 0.69975005,0.69975005 0 0 0 0,-9.9e-4 c -2e-5,-0.94308 -0.85825,-1.8013 -1.80133,-1.80133 -0.94309,3e-5 -1.8013,0.85825 -1.80132,1.80133 2e-5,0.73712 0.52883,1.4069 1.20812,1.67104 0.14206,1.18321 0.38115,3.18059 0.55965,4.2388 0.17978,1.06586 1.01903,1.77998 1.73569,2.33876 0.37938,0.2958 0.47606,0.3284 0.73978,0.49105 -0.0229,0.0578 -0.0586,0.12466 -0.0721,0.17273 -0.0594,0.2104 -0.0766,0.3019 -0.10258,0.35287 -0.011,0.0224 -0.0235,0.0415 -0.0509,0.0716 -0.0542,0.0597 -0.17868,0.16434 -0.46242,0.29364 a 0.69975005,0.69975005 0 0 0 -0.25564,0.19889 c 0,0 -0.29095,0.35818 -0.49697,0.86661 -0.20603,0.50844 -0.36677,1.27947 0.0587,1.99873 a 0.69975005,0.69975005 0 0 0 0.60208,0.34349 h 10.3411 a 0.69975005,0.69975005 0 0 0 0.60209,-0.34349 c 0.42549,-0.71926 0.26475,-1.49029 0.0587,-1.99873 -0.20603,-0.50843 -0.49697,-0.86661 -0.49697,-0.86661 a 0.69975005,0.69975005 0 0 0 -0.25563,-0.19889 c -0.28399,-0.12937 -0.4093,-0.23457 -0.46292,-0.29364 -0.0273,-0.0301 -0.0395,-0.0492 -0.0509,-0.0716 -0.0262,-0.0509 -0.0432,-0.14253 -0.10258,-0.35287 -0.0141,-0.0476 -0.049,-0.11386 -0.0716,-0.17125 0.2503,-0.15333 0.34508,-0.18435 0.73978,-0.49203 0.7168,-0.55877 1.55589,-1.27331 1.73569,-2.33926 0.17852,-1.05839 0.41725,-3.05573 0.55915,-4.2388 0.67951,-0.26401 1.2086,-0.93375 1.20862,-1.67104 -3e-5,-0.94293 -0.85793,-1.801 -1.80083,-1.80133 h -5e-4 c -0.94318,-9e-5 -1.80182,0.85814 -1.80183,1.80133 a 0.69975005,0.69975005 0 0 0 0,0.003 c 7.5e-4,0.17737 0.0354,0.3532 0.0879,0.52263 l -0.64947,0.68895 0.18013,-2.34024 c 0.52873,-0.32278 0.89793,-0.91403 0.89968,-1.5373 a 0.69975005,0.69975005 0 0 0 0,-5e-4 0.69975005,0.69975005 0 0 0 0,-5.2e-4 0.69975005,0.69975005 0 0 0 0,-5e-4 0.69975005,0.69975005 0 0 0 0,-5e-4 c -3e-5,-0.94309 -0.85824,-1.8013 -1.80133,-1.80133 -0.94308,3e-5 -1.80129,0.85824 -1.80133,1.80133 a 0.69975005,0.69975005 0 0 0 0,0.003 c 0.001,0.28147 0.0882,0.55114 0.21567,0.80195 l -2.16209,3.55084 -2.16208,-3.55084 c 0.12764,-0.25092 0.21433,-0.5209 0.21518,-0.80245 a 0.69975005,0.69975005 0 0 0 0,-5.1e-4 0.69975005,0.69975005 0 0 0 0,-5e-4 0.69975005,0.69975005 0 0 0 0,-5.1e-4 0.69975005,0.69975005 0 0 0 0,-5e-4 c -4e-5,-0.94309 -0.85825,-1.8013 -1.80133,-1.80133 z" />
    <path
       id="path18"
       style="fill:#000000;fill-opacity:1;stroke:none;stroke-width:0.0408439"
       d="m 82.737079,193.74584 a 1.1015593,1.1015593 0 0 0 -1.10154,1.10153 1.1015593,1.1015593 0 0 0 0.86559,1.07321 l 0.36483,4.72787 -2.33482,-2.47623 a 1.1015593,1.1015593 0 0 0 0.22302,-0.65979 1.1015593,1.1015593 0 0 0 -1.10168,-1.10154 1.1015593,1.1015593 0 0 0 -1.10153,1.10154 1.1015593,1.1015593 0 0 0 1.10153,1.10154 1.1015593,1.1015593 0 0 0 0.0373,-0.003 c 0.12498,1.048 0.42799,3.56182 0.61907,4.69458 0.23397,1.38714 2.77638,2.76712 2.77669,2.76729 -0.0462,0.031 -0.0866,0.0623 -0.12247,0.094 -0.32128,0.28524 -0.25077,0.59812 -0.42032,0.92918 -0.0376,0.0736 -0.0872,0.14801 -0.15553,0.22329 -0.13657,0.15051 -0.3484,0.30414 -0.69075,0.46015 0,0 -0.92473,1.15361 -0.38193,2.07119 h 10.34108 c 0.54281,-0.91758 -0.38194,-2.07119 -0.38194,-2.07119 -0.34234,-0.15599 -0.55412,-0.30965 -0.69074,-0.46015 -0.0684,-0.0752 -0.11778,-0.14973 -0.15552,-0.22329 -0.16956,-0.33106 -0.099,-0.64394 -0.42034,-0.92918 -0.0356,-0.0316 -0.0763,-0.063 -0.12232,-0.094 2.5e-4,-1.7e-4 2.54272,-1.38015 2.7767,-2.76729 0.19106,-1.13276 0.49405,-3.64658 0.61905,-4.69458 a 1.1015593,1.1015593 0 0 0 0.0373,0.003 1.1015593,1.1015593 0 0 0 1.10154,-1.10154 1.1015593,1.1015593 0 0 0 -1.10154,-1.10154 1.1015593,1.1015593 0 0 0 -1.10166,1.10154 1.1015593,1.1015593 0 0 0 0.22302,0.65979 l -2.33482,2.47623 0.36483,-4.72787 a 1.1015593,1.1015593 0 0 0 0.86559,-1.07321 1.1015593,1.1015593 0 0 0 -1.10155,-1.10153 1.1015593,1.1015593 0 0 0 -1.10167,1.10153 1.1015593,1.1015593 0 0 0 0.34147,0.79377 l -2.98784,4.90705 -2.98783,-4.90705 a 1.1015593,1.1015593 0 0 0 0.34145,-0.79377 1.1015593,1.1015593 0 0 0 -1.10167,-1.10153 z" />
    <g
       id="g8"
       transform="translate(-146.45925,127.53399)"
       inkscape:export-filename="King_BLACK.png"
       inkscape:export-xdpi="96"
       inkscape:export-ydpi="96">
      <rect
         style="fill:#787777;fill-opacity:0.02;stroke:none;stroke-width:0.062594;stroke-dasharray:none"
         id="rect46"
         width="26.458334"
         height="26.458334"
         x="219.71524"
         y="88.994835"
         ry="0"
         inkscape:export-filename="King_BLACK.png"
         inkscape:export-xdpi="96"
         inkscape:export-ydpi="96" />
      <path
         id="path42"
         style="fill:#ffffff;stroke-width:0.0452823"
         d="m 231.78469,92.639355 c -0.5734,-7.8e-5 -0.99235,0.541497 -0.84826,1.096495 l 0.10133,0.390734 h -0.34954 c -0.48382,9.4e-5 -0.87598,0.39227 -0.87607,0.876084 v 1.490001 c 0.0387,0.04792 0.0824,0.09147 0.13015,0.130307 -0.44272,-0.112296 -0.89536,-0.19886 -1.36366,-0.209823 -1.40602,-0.03289 -2.92362,0.654701 -3.80379,2.306522 -0.61987,1.163324 -0.55703,2.451055 -0.17638,3.584495 0.3806,1.13344 1.05928,2.17001 1.78224,3.07352 0.80748,1.0092 1.60373,1.7777 2.22304,2.33157 -0.39182,0.23207 -0.86094,0.47738 -1.44161,0.73304 -0.12435,0.0548 -0.23436,0.13799 -0.32114,0.24269 0,0 -0.33822,0.4003 -0.57887,0.97403 -0.24063,0.57374 -0.4326,1.47147 0.0747,2.29987 0.15931,0.26011 0.44248,0.41866 0.74751,0.41856 h 11.66348 c 0.30505,1e-4 0.58819,-0.15843 0.74752,-0.41856 0.50718,-0.8284 0.31521,-1.72613 0.0745,-2.29987 -0.24063,-0.57373 -0.57885,-0.97403 -0.57885,-0.97403 -0.0866,-0.10478 -0.19673,-0.18781 -0.32117,-0.24269 -0.56316,-0.24796 -1.02446,-0.48655 -1.40929,-0.71244 0.62099,-0.55271 1.42279,-1.32145 2.24754,-2.35217 0.72292,-0.90351 1.4016,-1.94008 1.78222,-3.07352 0.3806,-1.13344 0.44344,-2.421171 -0.17637,-3.584495 -0.89148,-1.673043 -2.43869,-2.355278 -3.86166,-2.309874 -0.44375,0.0141 -0.87253,0.0946 -1.29243,0.199816 0.0426,-0.03524 0.0816,-0.07424 0.11684,-0.116839 v -1.490001 c -1.1e-4,-0.483813 -0.39228,-0.875989 -0.87608,-0.876083 h -0.40632 l 0.10133,-0.390735 c 0.14409,-0.554997 -0.27483,-1.096572 -0.84825,-1.096494 z"
         sodipodi:nodetypes="cccccccsssscccsccccscccsssscccccccc" />
      <path
         id="path24"
         style="fill:#000000;fill-opacity:1;stroke:none;stroke-width:0.0452823"
         d="m 231.78457,93.515548 0.38643,1.487386 h -1.48267 v 1.489891 h 1.48267 l -0.21987,1.881331 c -2.01152,-1.085217 -4.90167,-2.060598 -6.40314,0.757241 -1.94603,3.652133 4.49353,8.658073 4.49353,8.658073 -0.55152,0.44486 -1.35534,0.93896 -2.52664,1.45468 0,0 -1.04313,1.25706 -0.43089,2.25701 h 11.66376 c 0.61225,-0.99996 -0.43089,-2.25701 -0.43089,-2.25701 -1.15389,-0.50806 -1.94982,-0.99497 -2.50059,-1.43467 l 0.0312,-0.02 c 0,0 6.43957,-5.00594 4.49353,-8.658075 -1.51946,-2.851589 -4.48861,-1.832042 -6.46013,-0.718508 l -0.21986,-1.920063 h 1.53953 v -1.489891 h -1.53953 l 0.38643,-1.487386 z m -2.08484,6.005362 c 1.33228,0.0031 2.98977,1.55104 2.27275,5.47433 0,0 -4.09347,-2.21832 -3.71082,-4.32903 0.13156,-0.72556 0.74019,-1.147289 1.43807,-1.1453 z m 6.72756,0 c 0.69785,-0.0016 1.30649,0.41974 1.43805,1.1453 0.38267,2.11071 -3.71068,4.32903 -3.71068,4.32903 -0.717,-3.92329 0.94032,-5.470618 2.27263,-5.47433 z" />
    </g>
    <rect
       style="fill:#787777;fill-opacity:0.02;stroke:none;stroke-width:0.062594;stroke-dasharray:none"
       id="rect47"
       width="26.458334"
       height="26.458334"
       x="105"
       y="68.67836"
       ry="0"
       inkscape:export-filename="Pawn_WHITE.png"
       inkscape:export-xdpi="96"
       inkscape:export-ydpi="96" />
    <path
       id="path47"
       style="fill:#000000;fill-opacity:1;stroke-width:0.0450511"
       d="m 118.23199,74.50132 c -1.37647,-1.6e-5 -2.50588,1.12893 -2.50595,2.505518 a 0.62584896,0.62584896 0 0 0 0,0.0031 c 2.2e-4,0.07515 0.004,0.144824 0.009,0.208532 0.004,0.05528 0.011,0.1013 0.0163,0.13684 0.003,0.0169 0.004,0.03351 0.006,0.04979 0.0874,0.545778 0.36369,1.018533 0.74306,1.386733 -0.32392,0.281055 -0.55888,0.497102 -0.89836,0.756708 -0.51818,0.396257 -0.63311,0.990085 -0.64675,1.406085 -0.0142,0.415999 0.0739,0.753199 0.0739,0.753199 a 0.62584896,0.62584896 0 0 0 0.60717,0.472944 l 0.55037,-4.38e-4 c -0.0257,0.134804 -0.0263,0.235525 -0.10084,0.423671 -0.25992,0.656863 -0.89313,1.633985 -2.47999,2.74308 a 0.62584896,0.62584896 0 0 0 -0.19578,0.223062 c 0,0 -1.00277,1.704034 -0.36999,3.344501 a 0.62584896,0.62584896 0 0 0 0.58379,0.400375 h 9.21039 a 0.62584896,0.62584896 0 0 0 0.5838,-0.400375 c 0.63271,-1.640358 -0.3691,-3.344501 -0.3691,-3.344501 a 0.62584896,0.62584896 0 0 0 -0.19623,-0.223062 c -1.58686,-1.109095 -2.22009,-2.086217 -2.48001,-2.74308 -0.0745,-0.188146 -0.075,-0.288867 -0.10083,-0.423671 l 0.55038,4.38e-4 a 0.62584896,0.62584896 0 0 0 0.60757,-0.473382 c 0,0 0.0872,-0.33723 0.0736,-0.7532 -0.0142,-0.415953 -0.12918,-1.009437 -0.64717,-1.405646 -0.33956,-0.259652 -0.57459,-0.475653 -0.89837,-0.756708 0.37989,-0.368685 0.65691,-0.842271 0.74394,-1.388926 a 0.62584896,0.62584896 0 0 0 0,-9.06e-4 c 8.3e-4,-0.01252 0.004,-0.02583 0.006,-0.04086 a 0.62584896,0.62584896 0 0 0 8.2e-4,-0.0047 c 0.006,-0.0404 0.011,-0.08658 0.0159,-0.138094 0.006,-0.06434 0.009,-0.133863 0.009,-0.208093 a 0.62584896,0.62584896 0 0 0 0,-0.0047 c -7e-5,-1.376417 -1.12904,-2.505519 -2.50553,-2.505519 z" />
    <path
       id="path48"
       style="fill:#ffffff;fill-opacity:1;stroke:none;stroke-width:0.0450511;stroke-opacity:0.945513"
       d="m 118.22818,75.126823 c -1.03834,-1.6e-5 -1.88011,0.841707 -1.88015,1.880032 2.2e-4,0.05261 0.003,0.104586 0.008,0.156411 0.003,0.03601 0.008,0.07124 0.0125,0.106465 8.2e-4,0.01095 0.003,0.02301 0.006,0.03429 0.10459,0.657333 0.54828,1.200934 1.14763,1.44446 l -2.2e-4,4.39e-4 c 0,0 -0.93135,0.830841 -1.54016,1.296394 -0.60879,0.465553 -0.34629,1.50917 -0.34629,1.50917 l 1.23716,-6.74e-4 c 0,0 0.42194,1.978105 -2.9086,4.305889 0,0 -0.82372,1.575774 -0.34024,2.829191 h 9.21033 c 0.48344,-1.253417 -0.34026,-2.829206 -0.34026,-2.829206 -3.33054,-2.327785 -2.90858,-4.305874 -2.90858,-4.305874 l 1.23715,6.74e-4 c 0,0 0.2625,-1.043617 -0.34631,-1.50917 -0.60881,-0.465569 -1.54015,-1.296394 -1.54015,-1.296394 l -2.1e-4,-4.54e-4 c 0.59935,-0.243526 1.04295,-0.787129 1.14761,-1.444445 8.3e-4,-0.01096 0.005,-0.02287 0.006,-0.03445 0.006,-0.03523 0.009,-0.07061 0.0125,-0.106466 0.004,-0.05166 0.006,-0.103804 0.008,-0.156254 -5e-5,-1.038325 -0.84182,-1.880048 -1.88015,-1.880048 z"
       sodipodi:nodetypes="cccccccsccccccccscccccccc" />
    <g
       id="g3"
       transform="matrix(1.5661965,0,0,1.5661965,-275.79075,97.80316)"
       inkscape:export-filename="Knight_WHITE.png"
       inkscape:export-xdpi="96"
       inkscape:export-ydpi="96">
      <rect
         style="fill:#787777;fill-opacity:0.02;stroke:none;stroke-width:0.0399656;stroke-dasharray:none"
         id="rect48"
         width="16.893368"
         height="16.893368"
         x="243.13089"
         y="0.39993286"
         ry="0"
         inkscape:export-filename="Knight_WHITE.png"
         inkscape:export-xdpi="96"
         inkscape:export-ydpi="96" />
      <path
         id="path49"
         style="fill:#000000;fill-opacity:1;stroke-width:0;stroke-opacity:0.673077"
         d="m 251.28798,2.0695413 c -0.39353,-0.0044 -0.76215,0.02813 -1.08354,0.120185 -0.77726,0.222641 -1.26509,0.521796 -1.55679,0.802359 -0.14586,0.140282 -0.24387,0.263585 -0.30703,0.430197 -0.0316,0.08331 -0.0853,0.178173 -0.0135,0.382645 0.0359,0.10224 0.14085,0.232844 0.27182,0.286049 0.13098,0.0532 0.24592,0.03725 0.32088,0.01573 -0.10683,0.03067 -0.12475,0.004 -0.10673,0.01046 0.018,0.0066 0.0667,0.03011 0.12094,0.06776 0.0517,0.03595 0.0991,0.103232 0.15351,0.157627 -0.18735,0.368697 -0.37441,0.732344 -0.37441,0.732344 -0.0394,0.06697 -0.0608,0.142887 -0.0625,0.220527 -6.5e-4,0.0301 -0.004,0.228518 -0.002,0.417467 l -0.44031,1.002667 c -0.0126,0.01869 -0.0937,0.141394 -0.20855,0.267703 -0.0797,0.08767 -0.2348,0.24665 -0.29839,0.508448 -0.0636,0.261799 0.004,0.574041 0.18383,0.860767 0.28806,0.460192 0.77752,0.652605 1.16891,0.623392 0.39138,-0.02922 0.6907,-0.159016 0.89933,-0.474377 l -0.11682,0.120934 c 0.0603,-0.04254 0.08,-0.04004 0.13067,-0.07226 -0.0699,0.07379 -0.12324,0.152511 -0.19581,0.225769 -0.25171,0.25406 -0.50739,0.497147 -0.70165,0.794123 -0.19427,0.296975 -0.31923,0.7166387 -0.17073,1.1157387 0.0852,0.228861 0.19918,0.344993 0.25759,0.393879 -0.005,0.02652 -0.005,0.04819 -0.0419,0.144521 0.0424,-0.112225 -0.14004,0.08127 -0.16212,0.421211 -0.0156,0.241327 0.11852,0.459703 0.30927,0.672813 -0.10576,0.107652 -0.18384,0.209269 -0.21268,0.251229 -0.0479,0.06969 -0.0285,0.07899 -0.26357,0.17073 -0.0633,0.02478 -0.12019,0.06342 -0.16658,0.113072 0,0 -0.17328,0.180103 -0.29952,0.447045 -0.12625,0.266943 -0.22674,0.720665 0.0442,1.112745 0.0851,0.122916 0.22496,0.196249 0.37441,0.19619 h 5.77451 c 0.14945,5.9e-5 0.2894,-0.07327 0.37441,-0.19619 0.27092,-0.392081 0.17043,-0.845802 0.0442,-1.112745 -0.12624,-0.266942 -0.29952,-0.447045 -0.29952,-0.447045 -0.0464,-0.04966 -0.10338,-0.0883 -0.16662,-0.113071 -0.23515,-0.09175 -0.2157,-0.101043 -0.26358,-0.170731 -0.0313,-0.04555 -0.12253,-0.160587 -0.24524,-0.277812 6.6e-4,-6.7e-4 9.8e-4,-8.18e-4 0.001,-0.0015 0.18106,-0.245021 0.31043,-0.679263 0.1505,-1.136706 -0.0212,-0.06073 -0.0212,-0.07532 -0.0292,-0.110826 0.0165,-0.01078 0.0165,-0.01091 0.036,-0.02359 0.1361,-0.09279 0.21142,-0.251887 0.19693,-0.415969 0.33165,6.88e-4 0.5526,-0.342284 0.41485,-0.6439837 -0.1459,-0.278194 -0.15242,-0.432337 -0.14528,-0.632752 0.003,-0.104676 0.0179,-0.230814 0.0203,-0.374409 0.0369,-0.0064 0.0729,-0.01735 0.10705,-0.03258 0.28323,-0.307258 0.48105,-0.713364 0.55936,-1.1412 0.0233,-0.12729 0.0288,-0.259099 0.0198,-0.392755 0.0687,-0.04402 0.12432,-0.1057 0.16099,-0.178593 0.0598,-0.598026 0.0427,-1.02186 -0.0801,-1.348248 0.0721,-0.115991 0.0884,-0.258259 0.0442,-0.387514 -0.0981,-0.280682 -0.27371,-0.674102 -0.55263,-1.015398 -0.0341,-0.04162 -0.0925,-0.06716 -0.13029,-0.10708 0.0177,-0.0763 0.0153,-0.155872 -0.006,-0.231012 -0.25067,-0.482794 -0.44127,-0.7594 -0.74358,-0.902326 -0.0249,-0.01176 -0.039,-0.0089 -0.0621,-0.01835 0.0598,-0.181229 1.4e-4,-0.380514 -0.14939,-0.499087 -0.65292,-0.453417 -1.61478,-0.618467 -2.48046,-0.628259 z"
         sodipodi:nodetypes="sssssscsscccccsssscccsssccscsccsccccsccsccsccccsccsccccsccsccss" />
      <path
         id="path50"
         style="fill:#ffffff;fill-opacity:1;stroke:none;stroke-width:0;stroke-opacity:0.673077"
         d="m 251.28276,2.5245883 c -0.36234,-0.0041 -0.69754,0.02929 -0.95304,0.102466 -1.44189,0.41302 -1.69079,1.087071 -1.53532,1.042439 0.17951,-0.05152 0.60434,0.230852 0.84294,0.59774 -0.41314,0.835225 -0.53172,1.037666 -0.53172,1.037666 -0.002,0.09499 -0.0227,0.260134 -0.004,0.507767 l -0.49727,1.132313 c 0,0 -0.1148,0.176021 -0.26781,0.344329 -0.15302,0.168324 -0.33976,0.384098 -0.0658,0.821854 0.41962,0.67036 1.14495,0.379127 1.30348,0.139486 1.13195,-0.798794 1.2624,-0.04102 1.67423,-1.118955 -0.14549,1.69843 -2.28999,2.408348 -1.92277,3.3952717 0.13604,0.365613 0.45554,0.221638 0.21496,0.858105 -0.0616,0.162993 -0.37916,0.329712 0.25178,0.840269 l 3.54215,0.02299 c 0,0 0.57169,-0.294489 0.34433,-0.944835 -0.16448,-0.470513 -0.13322,-0.456625 0.18748,-0.665667 -0.44699,-0.514816 -0.37104,-0.462809 -0.20274,-1.1666607 0.26013,0.306028 0.32174,0.6341647 0.66044,0.6992227 -0.36713,-0.7000347 -0.0886,-1.0787277 -0.21075,-1.5443697 l -0.17586,-0.837343 c 0.20642,0.396395 0.21588,0.01497 0.43716,0.822138 0.41372,-0.448823 0.71647,-1.44639 0.17804,-1.630728 -0.24423,-0.08362 -0.39071,-0.205142 -0.24845,-0.339752 0.28141,0.295298 0.31514,-0.160846 0.69229,0.521122 0.15699,-1.567958 -0.38455,-1.571939 -0.68829,-1.449547 -0.12746,0.05138 -0.7602,-0.472177 -0.45423,-0.411211 0.68796,0.383667 0.60711,-0.142079 1.12964,0.32048 -0.16581,-0.474304 -0.67422,-1.465873 -1.28306,-1.200819 -0.22206,0.09668 -0.5187,-0.225717 -0.27707,-0.162768 0.15334,0.146162 0.40052,-0.304548 0.89627,0.06946 -0.47653,-0.917841 -0.55415,-0.668696 -1.18288,-0.844368 -0.64046,-0.108887 0.37181,-0.411214 0.37181,-0.411214 -0.50025,-0.347394 -1.42881,-0.537863 -2.22599,-0.546881 z m -1.2682,2.566883 c 0.0123,-1.55e-4 0.42808,-0.243688 0.43162,0.04823 0.10015,0.02264 -0.34867,0.581114 -0.78939,0.615102 0.15547,-0.320887 0.27154,-0.66184 0.35777,-0.663332 z m -0.28438,7.4229567 c -0.3683,0.198097 -0.18757,0.418896 -0.77873,0.649544 0,0 -0.51647,0.551548 -0.21334,0.990248 h 5.77482 c 0.30313,-0.438702 -0.21323,-0.990248 -0.21323,-0.990248 -0.59117,-0.230648 -0.41043,-0.451447 -0.77874,-0.649544 z"
         sodipodi:nodetypes="sscccccccccssccsccccccscccccsccccssccccccccccc" />
    </g>
    <g
       id="g5"
       transform="translate(-138.13089,108.28219)"
       inkscape:export-filename="Bishop_WHITE.png"
       inkscape:export-xdpi="96"
       inkscape:export-ydpi="96">
      <rect
         style="fill:#787777;fill-opacity:0.02;stroke:none;stroke-width:0.062594;stroke-dasharray:none"
         id="rect50"
         width="26.458334"
         height="26.458334"
         x="243.13089"
         y="22.219749"
         ry="0"
         inkscape:export-filename="Bishop_WHITE.png"
         inkscape:export-xdpi="96"
         inkscape:export-ydpi="96" />
      <path
         id="path51"
         style="fill:#000000;fill-opacity:1;stroke-width:0.0432452"
         d="m 256.36014,26.426153 c -1.16448,8.5e-5 -2.12567,0.961065 -2.12564,2.125642 a 0.79641161,0.79641161 0 0 0 0,0.001 c 5.5e-4,0.32704 0.0883,0.639241 0.22942,0.926963 -0.92312,1.049394 -1.73203,2.583928 -2.32215,4.156182 -0.34641,0.923001 -0.60394,1.83772 -0.70957,2.660187 -0.10572,0.822471 -0.1361,1.593312 0.38821,2.244256 0.31581,0.391962 0.70434,0.736617 1.11404,1.05603 -0.44721,0.348308 -1.03023,0.730681 -1.97464,1.161057 a 0.79641161,0.79641161 0 0 0 -0.29104,0.226775 c 0,0 -0.313,0.384462 -0.53454,0.931144 -0.22152,0.546684 -0.3969,1.383149 0.0658,2.165356 a 0.79641161,0.79641161 0 0 0 0.68556,0.390849 h 10.94903 a 0.79641161,0.79641161 0 0 0 0.68557,-0.390849 c 0.46273,-0.782209 0.28735,-1.618672 0.0659,-2.165356 -0.2215,-0.546682 -0.53455,-0.931144 -0.53455,-0.931144 a 0.79641161,0.79641161 0 0 0 -0.29103,-0.226775 c -0.94442,-0.430378 -1.52742,-0.812749 -1.97462,-1.161057 0.4097,-0.319412 0.79821,-0.66406 1.11402,-1.05603 0.46701,-0.579643 0.47993,-1.260842 0.4175,-1.976722 -0.0627,-0.715875 -0.25425,-1.506588 -0.52514,-2.322635 -0.5418,-1.632088 -1.39144,-3.345789 -2.31481,-4.52352 A 0.79641161,0.79641161 0 0 0 258.188,29.572774 c 0.17544,-0.313515 0.29742,-0.653416 0.29781,-1.019971 a 0.79641161,0.79641161 0 0 0 0,-0.001 c 6e-5,-1.164558 -0.96107,-2.12568 -2.12564,-2.125642 z" />
      <path
         id="path52"
         style="fill:#ffffff;fill-opacity:1;stroke:none;stroke-width:0.0432452"
         d="m 256.35999,27.222708 c -0.73409,5.2e-5 -1.32919,0.595188 -1.32915,1.329294 5.4e-4,0.379499 0.1631,0.740721 0.44682,0.992652 -1.82121,1.614512 -4.07348,7.20966 -3.03711,8.496002 0.44408,0.55121 1.10329,1.076376 1.77085,1.49105 -0.47376,0.553289 -1.33833,1.228976 -2.92153,1.95046 0,0 -0.97911,1.221438 -0.40438,2.192954 h 10.94901 c 0.57472,-0.971524 -0.40441,-2.192954 -0.40441,-2.192954 -1.5832,-0.721487 -2.44777,-1.397171 -2.92153,-1.95046 0.66762,-0.414685 1.32676,-0.93981 1.77088,-1.49105 0.92293,-1.145574 -0.76228,-5.706435 -2.42854,-7.831701 -1.49085,1.7466 -1.95518,5.799076 -1.95518,5.799076 l -0.80385,-0.434371 c 0.0432,-1.710349 0.89801,-4.737874 2.07992,-5.959926 l 0.0708,-0.06909 c 0.28382,-0.251929 0.44639,-0.613152 0.4468,-0.99265 3e-5,-0.734158 -0.59512,-1.329319 -1.32928,-1.329294 z"
         sodipodi:nodetypes="cccsccccccsccccccc" />
    </g>
    <g
       id="g6"
       transform="translate(-138.13089,115.89203)"
       inkscape:export-filename="Rook_WHITE.png"
       inkscape:export-xdpi="96"
       inkscape:export-ydpi="96">
      <rect
         style="fill:#787777;fill-opacity:0.02;stroke:none;stroke-width:0.062594;stroke-dasharray:none"
         id="rect52"
         width="26.458334"
         height="26.458334"
         x="243.13089"
         y="44.039566"
         ry="0"
         inkscape:export-filename="Rook_WHITE.png"
         inkscape:export-xdpi="96"
         inkscape:export-ydpi="96" />
      <path
         id="path53"
         style="fill:#000000;fill-opacity:1;stroke-width:0.0444931"
         d="m 251.10219,48.243342 c -0.44773,1.88e-4 -0.81067,0.363107 -0.81085,0.810867 v 1.884855 c -0.001,0.0012 -0.002,0.0031 -0.003,0.0031 v 2.530191 c -9e-5,0.233535 0.1004,0.455794 0.27592,0.609892 l 2.42391,2.125329 -1.1515,5.665544 c -0.32538,0.225814 -0.56029,0.587276 -0.78217,0.968363 -0.10964,0.159502 -0.10776,0.213034 -0.62326,0.41415 -0.11292,0.04417 -0.21414,0.113079 -0.29681,0.201553 0,0 -0.35093,0.365801 -0.60583,0.904385 -0.25488,0.538584 -0.45161,1.428089 0.0807,2.198533 0.15161,0.219063 0.40102,0.349763 0.6674,0.349669 h 12.17463 c 0.26641,9.4e-5 0.51584,-0.130621 0.66738,-0.349669 0.53237,-0.770444 0.33564,-1.659949 0.0807,-2.198533 -0.2549,-0.538584 -0.60582,-0.904385 -0.60582,-0.904385 -0.0825,-0.08849 -0.18407,-0.157371 -0.29682,-0.201553 -0.51552,-0.201131 -0.51411,-0.25457 -0.62385,-0.41415 -0.0789,-0.114802 -0.28735,-0.376388 -0.57619,-0.628483 l -1.29994,-6.00309 2.4268,-2.127663 c 0.17545,-0.154113 0.276,-0.376357 0.27587,-0.609892 v -2.530191 c -8.6e-4,-7.67e-4 -10e-4,-0.0016 -0.002,-0.0031 v -1.832591 c -2.1e-4,-0.447744 -0.36313,-0.810679 -0.81087,-0.810867 h -2.2479 c -0.43827,0.0063 -0.79195,0.360398 -0.79867,0.798667 v -0.03884 c -1.8e-4,-0.447744 -0.36312,-0.810679 -0.81088,-0.810867 h -3.01749 c -0.30084,0.07017 -0.53571,0.305017 -0.60584,0.605836 -0.0697,-0.302339 -0.30583,-0.538427 -0.60815,-0.608154 z"
         sodipodi:nodetypes="cccccccccccsccccsccsccccccccccsccccc" />
      <path
         id="path54"
         style="fill:#ffffff;fill-opacity:1;stroke:none;stroke-width:0.0444931"
         d="m 251.102,49.054178 v 1.888457 h -0.003 v 2.530253 l 2.78551,2.442343 -1.50226,6.727189 h -0.0141 c -0.77646,0.417627 -0.39534,0.883053 -1.64166,1.36931 0,0 -1.08889,1.16276 -0.44982,2.087646 h 12.17481 c 0.63905,-0.924886 -0.44983,-2.087646 -0.44983,-2.087646 -1.24633,-0.486257 -0.86518,-0.951683 -1.64164,-1.36931 v 0 l -1.45673,-6.727189 2.78535,-2.442343 v -2.530253 h -0.002 v -1.835128 h -2.24776 v 1.809928 l -1.60985,-0.01801 v -1.842678 h -3.01764 v 1.843132 l -1.21364,0.0141 V 49.0541 Z"
         sodipodi:nodetypes="ccccccccccccccccccccccccccc" />
    </g>
    <rect
       style="fill:#787777;fill-opacity:0.02;stroke:none;stroke-width:0.062594;stroke-dasharray:none"
       id="rect54"
       width="26.458334"
       height="26.458334"
       x="105.00002"
       y="188.96895"
       ry="0"
       inkscape:export-filename="Queen_WHITE.png"
       inkscape:export-xdpi="96"
       inkscape:export-ydpi="96" />
    <path
       id="path55"
       style="fill:#000000;fill-opacity:1;stroke-width:0.0408439"
       d="m 114.48089,193.44589 c -0.94308,3e-5 -1.80129,0.85825 -1.80133,1.80133 a 0.69975005,0.69975005 0 0 0 0,0.002 c 0.002,0.62327 0.37096,1.21452 0.89969,1.5373 l 0.18013,2.34024 -0.64947,-0.68894 c 0.0525,-0.16943 0.0871,-0.34525 0.0879,-0.52263 a 0.69975005,0.69975005 0 0 0 0,-5.1e-4 0.69975005,0.69975005 0 0 0 0,-0.001 0.69975005,0.69975005 0 0 0 0,-9.8e-4 c -1e-5,-0.94309 -0.85824,-1.8013 -1.80133,-1.80133 -0.94308,3e-5 -1.8013,0.85824 -1.80131,1.80133 1e-5,0.73711 0.52882,1.4069 1.20811,1.67104 0.14206,1.18321 0.38115,3.18058 0.55965,4.2388 0.17979,1.06586 1.01903,1.77998 1.73569,2.33875 0.37938,0.29581 0.47607,0.3284 0.73978,0.49105 -0.0229,0.0578 -0.0586,0.12467 -0.072,0.17274 -0.0594,0.2104 -0.0766,0.30191 -0.10259,0.35286 -0.011,0.0224 -0.0235,0.0413 -0.0509,0.0716 -0.0542,0.0597 -0.17867,0.16434 -0.46242,0.29365 a 0.69975005,0.69975005 0 0 0 -0.25563,0.19889 c 0,0 -0.29096,0.35817 -0.49697,0.86661 -0.20604,0.50843 -0.36678,1.27947 0.0587,1.99873 a 0.69975005,0.69975005 0 0 0 0.60207,0.34348 h 10.3411 a 0.69975005,0.69975005 0 0 0 0.60209,-0.34348 c 0.42549,-0.71926 0.26475,-1.4903 0.0587,-1.99873 -0.20603,-0.50844 -0.49697,-0.86661 -0.49697,-0.86661 a 0.69975005,0.69975005 0 0 0 -0.25563,-0.19889 c -0.28398,-0.12937 -0.40929,-0.23457 -0.46292,-0.29365 -0.0272,-0.0301 -0.0395,-0.0492 -0.0509,-0.0716 -0.0262,-0.0509 -0.0432,-0.14252 -0.10259,-0.35286 -0.0141,-0.0476 -0.049,-0.11402 -0.0716,-0.17125 0.25029,-0.15333 0.34508,-0.18436 0.73977,-0.49204 0.71681,-0.55877 1.5559,-1.2733 1.73569,-2.33925 0.17852,-1.05839 0.41725,-3.05573 0.55915,-4.2388 0.67951,-0.26402 1.2086,-0.93376 1.20862,-1.67104 -3e-5,-0.94293 -0.85793,-1.801 -1.80083,-1.80133 h -5e-4 c -0.94318,-1e-4 -1.80181,0.85813 -1.80183,1.80133 a 0.69975005,0.69975005 0 0 0 0,0.003 c 7.5e-4,0.17737 0.0354,0.35319 0.0879,0.52262 l -0.64947,0.68896 0.18013,-2.34025 c 0.52873,-0.32277 0.89793,-0.91403 0.89969,-1.5373 a 0.69975005,0.69975005 0 0 0 0,-5e-4 0.69975005,0.69975005 0 0 0 0,-5.1e-4 0.69975005,0.69975005 0 0 0 0,-5.1e-4 0.69975005,0.69975005 0 0 0 0,-5e-4 c -3e-5,-0.94308 -0.85825,-1.80129 -1.80133,-1.80133 -0.94309,4e-5 -1.8013,0.85825 -1.80133,1.80133 a 0.69975005,0.69975005 0 0 0 0,0.003 c 10e-4,0.28148 0.0882,0.55115 0.21566,0.80196 l -2.16208,3.55083 -2.16209,-3.55083 c 0.12764,-0.25092 0.21433,-0.5209 0.21518,-0.80246 a 0.69975005,0.69975005 0 0 0 0,-5e-4 0.69975005,0.69975005 0 0 0 0,-5e-4 0.69975005,0.69975005 0 0 0 0,-5.2e-4 0.69975005,0.69975005 0 0 0 0,-5e-4 c -3e-5,-0.94308 -0.85825,-1.8013 -1.80133,-1.80133 z" />
    <path
       id="path56"
       style="fill:#ffffff;fill-opacity:1;stroke:none;stroke-width:0.0408439"
       d="m 114.48109,194.14548 a 1.1015593,1.1015593 0 0 0 -1.10154,1.10154 1.1015593,1.1015593 0 0 0 0.86559,1.0732 l 0.36483,4.72788 -2.33482,-2.47624 a 1.1015593,1.1015593 0 0 0 0.22303,-0.65979 1.1015593,1.1015593 0 0 0 -1.10168,-1.10153 1.1015593,1.1015593 0 0 0 -1.10154,1.10153 1.1015593,1.1015593 0 0 0 1.10154,1.10154 1.1015593,1.1015593 0 0 0 0.0373,-0.003 c 0.12499,1.04801 0.428,3.56183 0.61907,4.69458 0.23398,1.38715 2.77638,2.76713 2.7767,2.7673 -0.0462,0.031 -0.0866,0.0623 -0.12248,0.094 -0.32127,0.28523 -0.25076,0.59811 -0.42032,0.92918 -0.0376,0.0736 -0.0872,0.148 -0.15552,0.22329 -0.13657,0.15051 -0.3484,0.30414 -0.69076,0.46015 0,0 -0.92473,1.15361 -0.38193,2.07118 h 10.34108 c 0.54281,-0.91757 -0.38193,-2.07118 -0.38193,-2.07118 -0.34234,-0.156 -0.55412,-0.30966 -0.69074,-0.46015 -0.0685,-0.0753 -0.11778,-0.14973 -0.15553,-0.22329 -0.16955,-0.33107 -0.099,-0.64395 -0.42033,-0.92918 -0.0356,-0.0316 -0.0763,-0.0631 -0.12232,-0.094 2.5e-4,-1.7e-4 2.54272,-1.38015 2.77669,-2.7673 0.19106,-1.13275 0.49406,-3.64657 0.61906,-4.69458 a 1.1015593,1.1015593 0 0 0 0.0373,0.003 1.1015593,1.1015593 0 0 0 1.10154,-1.10154 1.1015593,1.1015593 0 0 0 -1.10154,-1.10153 1.1015593,1.1015593 0 0 0 -1.10166,1.10153 1.1015593,1.1015593 0 0 0 0.22303,0.65979 l -2.33483,2.47624 0.36483,-4.72788 a 1.1015593,1.1015593 0 0 0 0.86559,-1.0732 1.1015593,1.1015593 0 0 0 -1.10155,-1.10154 1.1015593,1.1015593 0 0 0 -1.10166,1.10154 1.1015593,1.1015593 0 0 0 0.34146,0.79376 l -2.98783,4.90705 -2.98784,-4.90705 a 1.1015593,1.1015593 0 0 0 0.34145,-0.79376 1.1015593,1.1015593 0 0 0 -1.10166,-1.10154 z" />
    <g
       id="g7"
       transform="matrix(1.5661965,0,0,1.5661965,-275.79075,76.918715)"
       inkscape:export-filename="King_WHITE.png"
       inkscape:export-xdpi="96"
       inkscape:export-ydpi="96">
      <rect
         style="fill:#787777;fill-opacity:0.02;stroke:none;stroke-width:0.0399656;stroke-dasharray:none"
         id="rect56"
         width="16.893368"
         height="16.893368"
         x="243.13089"
         y="89.394753"
         ry="0"
         inkscape:export-filename="King_WHITE.png"
         inkscape:export-xdpi="96"
         inkscape:export-ydpi="96" />
      <path
         id="path57"
         style="fill:#000000;fill-opacity:1;stroke-width:0.0289123"
         d="m 250.83708,91.721753 c -0.36611,-5e-5 -0.63361,0.34574 -0.54161,0.7001 l 0.0647,0.24948 h -0.22318 c -0.30891,6e-5 -0.5593,0.25046 -0.55936,0.55937 v 0.95135 c 0.0247,0.0306 0.0526,0.0584 0.0831,0.0832 -0.28267,-0.0717 -0.57168,-0.12697 -0.87068,-0.13397 -0.89773,-0.021 -1.8667,0.41802 -2.42868,1.47269 -0.39578,0.74277 -0.35566,1.56497 -0.11262,2.28866 0.24301,0.72369 0.67634,1.38553 1.13794,1.96241 0.51557,0.644367 1.02397,1.135047 1.41939,1.488687 -0.25017,0.14817 -0.5497,0.3048 -0.92045,0.46804 -0.0794,0.035 -0.14964,0.0881 -0.20505,0.15495 0,0 -0.21595,0.25559 -0.3696,0.62191 -0.15364,0.36633 -0.27621,0.93952 0.0477,1.46844 0.10172,0.16608 0.28252,0.26731 0.47728,0.26725 h 7.44701 c 0.19477,6e-5 0.37555,-0.10116 0.47728,-0.26725 0.32383,-0.52892 0.20126,-1.10211 0.0476,-1.46844 -0.15364,-0.36632 -0.36959,-0.62191 -0.36959,-0.62191 -0.0553,-0.0669 -0.12561,-0.11991 -0.20506,-0.15495 -0.35957,-0.15832 -0.65411,-0.31066 -0.89982,-0.45489 0.3965,-0.3529 0.90844,-0.84373 1.43503,-1.501837 0.46158,-0.57688 0.89491,-1.23872 1.13793,-1.96241 0.24301,-0.72369 0.28313,-1.54589 -0.11261,-2.28866 -0.5692,-1.06822 -1.55708,-1.50382 -2.46563,-1.47483 -0.28333,0.009 -0.5571,0.0604 -0.8252,0.12758 0.0272,-0.0225 0.0521,-0.0475 0.0746,-0.0746 v -0.95135 c -7e-5,-0.30891 -0.25047,-0.55931 -0.55937,-0.55937 h -0.25943 l 0.0647,-0.24948 c 0.092,-0.35436 -0.17548,-0.70015 -0.5416,-0.7001 z"
         sodipodi:nodetypes="cccccccsssscccsccccscccsssscccccccc" />
      <path
         id="path58"
         style="fill:#ffffff;fill-opacity:1;stroke:none;stroke-width:0.0289123"
         d="m 250.837,92.281193 0.24673,0.94968 h -0.94667 v 0.95128 h 0.94667 l -0.14038,1.20121 c -1.28434,-0.6929 -3.12967,-1.31567 -4.08834,0.48349 -1.24252,2.33185 2.86907,5.528087 2.86907,5.528087 -0.35214,0.28404 -0.86537,0.59952 -1.61323,0.9288 0,0 -0.66603,0.80262 -0.27512,1.44108 h 7.44719 c 0.39091,-0.63847 -0.27512,-1.44108 -0.27512,-1.44108 -0.73675,-0.32439 -1.24494,-0.63528 -1.5966,-0.91602 l 0.0199,-0.0128 c 0,0 4.1116,-3.196237 2.86907,-5.528087 -0.97016,-1.82071 -2.86593,-1.16974 -4.12472,-0.45876 l -0.14038,-1.22594 h 0.98297 v -0.95128 h -0.98297 l 0.24673,-0.94968 z m -1.33115,3.83436 c 0.85065,0.002 1.90894,0.99032 1.45113,3.4953 0,0 -2.61364,-1.41637 -2.36932,-2.76404 0.084,-0.46326 0.4726,-0.73253 0.91819,-0.73126 z m 4.29548,0 c 0.44557,-0.001 0.83418,0.268 0.91818,0.73126 0.24433,1.34767 -2.36923,2.76404 -2.36923,2.76404 -0.4578,-2.50498 0.60038,-3.49293 1.45105,-3.4953 z" />
    </g>
  </g>
</svg>
